<svg width="305" height="168" viewBox="0 0 305 168" fill="none" xmlns="http://www.w3.org/2000/svg">
<path d="M55.9977 54.1667C57.1102 57.2957 61.6068 59.7989 64.6199 59.7989V61.4214C58.2691 61.4214 55.9977 60.2161 52.1038 60.2161C48.2099 60.2161 45.8921 61.4214 39.5877 61.4214V59.7989C42.5776 59.7989 44.3392 57.3189 43.3193 54.213L38.2665 39.75H16.0852L11.0324 54.1667C9.91989 57.2957 11.7278 59.7989 14.7177 59.7989V61.4214C10.9861 61.4214 9.82717 60.2161 7.71798 60.2161C5.60878 60.2161 4.33399 61.4214 0.671875 61.4214V59.7989C3.93997 59.7989 8.29743 57.0407 9.29408 54.1667L26.3067 5.74787L24.6379 1.06592H37.4321L55.9977 54.1667ZM16.6415 38.1739H37.6176C34.1409 28.1841 30.6178 18.1944 27.0948 8.18156L16.6183 38.1739H16.6415Z" fill="white" stroke="white" stroke-width="1.39068"/>
<path d="M86.7555 19.7243V21.3467H81.1V46.4948C81.1 49.8093 80.8914 55.9283 84.9244 57.0408C85.4343 57.1799 85.9906 57.2494 86.5237 57.2494C89.6527 57.2494 92.4109 54.723 94.2419 51.9185L95.8644 52.9846C92.4804 58.9877 87.1031 61.4446 82.004 61.3983C75.2592 61.3519 69.0011 56.6468 69.0011 46.3789V26.9558C69.0011 23.734 66.3357 21.3467 63.3457 21.3467V19.7243C72.9877 19.7243 79.4776 13.4894 79.4776 5.95654H81.1V19.7243H86.7555Z" fill="white" stroke="white" stroke-width="1.39068"/>
<path d="M138.373 33.1908C130.469 34.6973 119.321 38.0349 116.192 46.0313C114.615 50.018 115.334 55.4648 120.619 57.7362C121.685 58.1998 122.774 58.4084 123.956 58.4084C125.764 58.4084 127.781 57.8058 129.867 56.3919L130.724 57.713C127.201 60.0772 123.099 61.3983 118.834 61.3983C107.338 61.3983 97.9736 52.0808 97.9736 40.5382C97.9736 28.9955 107.338 19.7012 118.834 19.7012C127.549 19.7012 135.313 25.1016 138.35 33.1676L138.373 33.1908ZM126.32 35.045C123.585 27.2804 118.95 21.8799 114.94 21.8799C114.592 21.8799 114.221 21.9263 113.874 22.019C107.268 23.7805 109.03 37.8959 110.397 42.856C111.092 45.4287 112.205 48.3491 113.781 50.9683C113.572 46.5413 115.403 42.9023 118.579 39.9355C120.642 37.9654 123.307 36.3661 126.297 35.045H126.32Z" fill="white" stroke="white" stroke-width="1.39068"/>
<path d="M140.62 59.7989C143.633 59.7989 146.276 57.3884 146.276 54.1666V11.2642C146.276 7.94976 143.819 5.67832 140.829 5.97963L140.62 4.38035C146.229 3.12874 153.067 3.3837 158.374 1.04272V54.1435C158.374 57.3652 161.04 59.7757 164.03 59.7757V61.3982C158.374 61.3982 157.03 60.1929 152.325 60.1929C147.62 60.1929 146.276 61.3982 140.62 61.3982V59.7757V59.7989Z" fill="white" stroke="white" stroke-width="1.39068"/>
<path d="M166.278 59.7988C169.291 59.7988 171.934 57.3883 171.934 54.1665V29.9224C171.934 26.6079 169.454 24.3828 166.487 24.6378L166.278 23.0617C171.887 21.8101 178.725 22.065 183.986 19.7472V54.1434C183.986 57.3651 186.698 59.7756 189.688 59.7756V61.3981C183.986 61.3981 182.642 60.1928 177.983 60.1928C173.324 60.1928 171.934 61.3981 166.278 61.3981V59.7756V59.7988ZM183.986 10.2443C183.986 13.5587 181.274 16.2474 177.983 16.2474C174.692 16.2474 171.934 13.5355 171.934 10.2443C171.934 6.953 174.646 4.19482 177.983 4.19482C181.321 4.19482 183.986 6.90665 183.986 10.2443Z" fill="white" stroke="white" stroke-width="1.39068"/>
<path d="M232.219 33.1908C224.315 34.6973 213.166 38.0349 210.037 46.0313C208.461 50.018 209.18 55.4648 214.464 57.7362C215.53 58.1998 216.62 58.4084 217.802 58.4084C219.61 58.4084 221.626 57.8058 223.712 56.3919L224.57 57.713C221.047 60.0772 216.944 61.3983 212.68 61.3983C201.183 61.3983 191.819 52.0808 191.819 40.5382C191.819 28.9955 201.183 19.7012 212.68 19.7012C221.394 19.7012 229.159 25.1016 232.195 33.1676L232.219 33.1908ZM220.166 35.045C217.431 27.2804 212.795 21.8799 208.786 21.8799C208.438 21.8799 208.067 21.9263 207.719 22.019C201.114 23.7805 202.875 37.8959 204.243 42.856C204.938 45.4287 206.051 48.3491 207.627 50.9683C207.418 46.5413 209.249 42.9023 212.425 39.9355C214.487 37.9654 217.153 36.3661 220.143 35.045H220.166Z" fill="white" stroke="white" stroke-width="1.39068"/>
<path d="M70.8322 91.182V91.7151C68.978 91.7151 68.5608 91.3211 67.0542 91.3211C66.1966 91.3211 65.594 91.576 65.1073 91.7151V90.6489C64.2033 91.3674 63.114 91.7151 61.9551 91.7151C58.0148 91.7151 55.9752 88.1457 56.0447 84.5531C56.091 81.1923 58.1075 78.2487 61.8392 78.2487C63.3458 78.2487 64.3192 78.8281 65.1073 80.1261V75.5137C65.1073 74.4243 64.3192 73.7058 63.3457 73.7985L63.2762 73.2886C65.0841 72.8946 67.3092 72.9641 69.0244 72.1992C69.0244 77.9242 69.0244 83.6491 69.0244 89.3741C69.0244 90.4171 69.9051 91.182 70.8786 91.182H70.8322ZM65.0841 81.285C64.6901 80.242 63.7861 78.8745 62.5345 78.8745C60.2399 78.8745 59.8227 83.0465 59.8227 84.6458C59.8227 87.404 60.6339 90.1853 62.2332 90.6257C62.4882 90.6952 62.7663 90.7416 63.0676 90.7416C63.6702 90.7416 64.3888 90.5562 65.0841 89.9999V81.2618V81.285Z" fill="white" stroke="white" stroke-width="1.39068"/>
<path d="M84.9945 84.9704C84.9945 88.702 81.9813 91.7152 78.2497 91.7152C74.518 91.7152 71.5049 88.702 71.5049 84.9704C71.5049 81.2387 74.518 78.2256 78.2497 78.2256C81.9813 78.2256 84.9945 81.2387 84.9945 84.9704ZM80.9847 84.2519C80.1734 81.1924 78.4351 78.9441 76.9749 78.9441C76.859 78.9441 76.7431 78.9441 76.6272 78.9905C75.1206 79.3845 74.6107 82.4208 75.5147 85.7353C76.3259 88.7947 78.0642 91.0662 79.5013 91.0662C79.6172 91.0662 79.7331 91.0662 79.849 91.0198C81.3787 90.6026 81.8654 87.5895 80.9847 84.275V84.2519Z" fill="white" stroke="white" stroke-width="1.39068"/>
<path d="M118.278 104.764C117.907 107.43 118.115 109.887 118.788 111.973C120.225 116.492 123.817 118.532 127.317 118.532C130.933 118.532 134.433 116.492 134.711 112.946C134.827 111.347 134.085 109.585 132.045 107.87C125.926 102.701 112.831 99.1088 112.112 90.4634C111.579 84.0199 118.811 79.8479 126.529 79.8479C132.833 79.8479 137.029 82.3279 141.015 86.8708C138.164 88.6323 135.777 91.4832 134.062 94.6818C134.85 89.1423 134.155 80.9141 126.575 80.9373C120.34 80.9373 118.231 87.543 123.006 92.1554C126.877 95.8871 133.923 98.5293 138.442 102.191C141.826 104.926 142.406 107.754 142.336 110.118C142.313 111.138 142.058 112.065 141.571 112.969C139.207 117.512 132.949 119.598 127.132 119.598C120.665 119.598 114.5 116.933 111.324 112.575C114.175 110.837 116.562 107.986 118.278 104.764Z" fill="white" stroke="white" stroke-width="1.39068"/>
<path d="M174.507 105.784C174.507 113.387 168.179 119.529 160.322 119.529C152.511 119.529 146.16 113.41 146.137 105.808C146.137 98.2283 152.464 92.063 160.275 92.063C168.109 92.063 174.483 98.2051 174.483 105.784H174.507ZM166.07 104.301C164.331 98.0661 160.692 93.4768 157.633 93.5C157.401 93.5 157.146 93.5232 156.914 93.5927C153.739 94.4271 152.673 100.569 154.574 107.337C156.312 113.572 159.951 118.185 162.987 118.185C163.242 118.185 163.474 118.161 163.706 118.092C166.904 117.234 167.947 111.115 166.07 104.324V104.301Z" fill="white" stroke="white" stroke-width="1.39068"/>
<path d="M176.014 118.439C178.054 118.439 179.862 116.84 179.862 114.731V98.7613C179.839 96.5594 178.17 95.0992 176.13 95.2614L175.991 94.2184C179.816 93.384 184.451 93.5926 188.021 92.0165V97.556C190.315 93.5926 193.977 91.9933 197.431 92.0165C201.093 92.0397 204.593 94.0562 205.798 98.3441C207.93 94.6124 210.805 91.9701 215.649 91.9933C220.261 91.9933 224.48 95.1223 224.48 101.867V114.661C224.48 116.771 226.334 118.37 228.373 118.37V119.436C224.503 119.436 223.599 118.648 220.423 118.648C217.225 118.648 216.321 119.436 212.45 119.459V118.393C214.513 118.393 216.321 116.794 216.321 114.685V101.821C216.321 99.6421 216.437 95.6091 213.679 94.8674C213.308 94.7747 212.96 94.7283 212.612 94.7283C209.692 94.7283 207.305 97.8805 206.215 100.314C206.285 100.824 206.308 101.334 206.308 101.89V114.685C206.308 116.794 208.139 118.393 210.179 118.393V119.459C206.331 119.459 205.427 118.671 202.229 118.671C199.03 118.671 198.126 119.482 194.279 119.482V118.416C196.318 118.416 198.126 116.817 198.126 114.708V101.844C198.126 99.6652 198.265 95.6323 195.507 94.8906C195.159 94.7979 194.789 94.7515 194.441 94.7515C191.52 94.7515 189.133 97.8573 188.09 100.175V114.708C188.09 116.817 189.944 118.416 191.984 118.416V119.482C188.113 119.482 187.233 118.694 184.034 118.694C180.835 118.694 179.931 119.482 176.084 119.506V118.439H176.014Z" fill="white" stroke="white" stroke-width="1.39068"/>
<path d="M214.559 2.43359L225.985 13.0491H217.27L213.446 4.82092L209.668 13.0491H200.953L212.38 2.43359H214.535H214.559Z" fill="white" stroke="white" stroke-width="1.39068"/>
<path d="M223.899 57.0639C224.664 54.4448 226.309 50.0873 229.925 45.7762C230.597 44.965 234.004 40.9784 239.892 37.8726C243.113 36.1806 254.355 30.896 267.543 35.0448C270.672 36.0415 282.33 39.7036 286.711 50.4582C287.244 51.7793 289.979 58.5009 287.847 65.6861C286.41 70.5071 283.582 72.7786 282.771 78.8512C282.609 80.0565 282.284 82.8378 282.956 86.1755C283.976 91.1587 286.526 93.9401 289.91 98.3902C293.688 103.374 297.28 108.125 299.691 113.433C301.012 116.33 303.955 123.028 303.26 131.859C302.472 141.895 297.442 148.872 294.986 151.792C290.141 157.587 284.764 160.252 281.635 161.759C268.98 167.878 256.974 166.348 250.994 165.514C246.103 164.841 240.355 163.961 233.888 160.252C230.458 158.282 223.829 154.458 219.982 146.345C218.8 143.842 215.531 136.982 217.919 128.661C220.306 120.293 226.773 116.168 228.442 115.125C234.931 111.115 241.305 111.37 244.434 111.555C246.59 111.671 257.808 112.529 265.503 121.522C267.195 123.515 271.576 128.637 271.135 135.429C271.043 137.005 270.788 140.621 268.122 142.961C263.487 146.994 255.699 143.495 254.957 143.147C249.649 140.667 245.895 135.266 245.362 129.611C244.944 125.068 246.729 121.916 250.252 115.704C252.663 111.463 256.093 105.413 262.096 102.168C263.023 101.682 264.321 101.079 265.851 99.7346C267.079 98.6452 270.046 96.0724 270.741 91.8309C271.622 86.4072 268.099 82.2816 267.543 81.6789C267.126 81.2154 262.838 76.5334 256.255 77.3446C255.629 77.4142 249.649 78.2718 246.66 83.7418C244.179 88.2846 245.014 93.7315 247.795 97.4631C251.272 102.145 256.719 102.655 257.576 102.725" stroke="white" stroke-width="1.48339" stroke-miterlimit="10"/>
<path d="M253.751 0.30127L253.913 129.634" stroke="white" stroke-width="1.48339" stroke-miterlimit="10"/>
<path d="M263.973 0.718506V101.149" stroke="white" stroke-width="1.48339" stroke-miterlimit="10"/>
<path d="M240.263 146.16C241.167 147.458 246.706 155.269 256.812 156.497C265.851 157.61 274.96 153.044 280.129 144.839" stroke="white" stroke-width="1.48339" stroke-miterlimit="10"/>
</svg>
