<svg width="33" height="41" viewBox="0 0 33 41" fill="none" xmlns="http://www.w3.org/2000/svg">
<path d="M33 20.1114C33 20.7041 32.8551 21.2725 32.5973 21.6915C32.3394 22.1106 31.9897 22.346 31.625 22.346H1.375C1.01033 22.346 0.660591 22.1106 0.402728 21.6915C0.144866 21.2725 0 20.7041 0 20.1114C0 19.5188 0.144866 18.9504 0.402728 18.5313C0.660591 18.1123 1.01033 17.8768 1.375 17.8768H31.625C31.9897 17.8768 32.3394 18.1123 32.5973 18.5313C32.8551 18.9504 33 19.5188 33 20.1114ZM1.375 4.46921H31.625C31.9897 4.46921 32.3394 4.23377 32.5973 3.8147C32.8551 3.39564 33 2.82726 33 2.2346C33 1.64195 32.8551 1.07357 32.5973 0.6545C32.3394 0.235431 31.9897 0 31.625 0H1.375C1.01033 0 0.660591 0.235431 0.402728 0.6545C0.144866 1.07357 0 1.64195 0 2.2346C0 2.82726 0.144866 3.39564 0.402728 3.8147C0.660591 4.23377 1.01033 4.46921 1.375 4.46921ZM31.625 35.7536H1.375C1.01033 35.7536 0.660591 35.9891 0.402728 36.4081C0.144866 36.8272 0 37.3956 0 37.9882C0 38.5809 0.144866 39.1493 0.402728 39.5684C0.660591 39.9874 1.01033 40.2228 1.375 40.2228H31.625C31.9897 40.2228 32.3394 39.9874 32.5973 39.5684C32.8551 39.1493 33 38.5809 33 37.9882C33 37.3956 32.8551 36.8272 32.5973 36.4081C32.3394 35.9891 31.9897 35.7536 31.625 35.7536Z" fill="white"/>
</svg>
