<svg width="29" height="29" viewBox="0 0 29 29" fill="none" xmlns="http://www.w3.org/2000/svg">
<path d="M2.375 28.5C2.375 28.5 0 28.5 0 26.125C0 23.75 2.375 16.625 14.25 16.625C26.125 16.625 28.5 23.75 28.5 26.125C28.5 28.5 26.125 28.5 26.125 28.5H2.375ZM14.25 14.25C16.1397 14.25 17.9519 13.4993 19.2881 12.1631C20.6243 10.8269 21.375 9.01467 21.375 7.125C21.375 5.23533 20.6243 3.42306 19.2881 2.08686C17.9519 0.750668 16.1397 0 14.25 0C12.3603 0 10.5481 0.750668 9.21186 2.08686C7.87567 3.42306 7.125 5.23533 7.125 7.125C7.125 9.01467 7.87567 10.8269 9.21186 12.1631C10.5481 13.4993 12.3603 14.25 14.25 14.25Z" fill="white"/>
</svg>
