<svg width="35" height="35" viewBox="0 0 35 35" fill="none" xmlns="http://www.w3.org/2000/svg">
<path d="M34.5816 32.6802L26.1714 24.2717C28.609 21.3451 29.8245 17.5915 29.5651 13.7916C29.3057 9.99176 27.5912 6.43817 24.7785 3.87013C21.9657 1.30208 18.2712 -0.0827126 14.4635 0.00382468C10.6557 0.090362 7.02792 1.64157 4.33474 4.33474C1.64157 7.02792 0.090362 10.6557 0.00382468 14.4635C-0.0827126 18.2712 1.30208 21.9657 3.87013 24.7785C6.43817 27.5912 9.99176 29.3057 13.7916 29.5651C17.5915 29.8245 21.3451 28.609 24.2717 26.1714L32.6802 34.5816C32.805 34.7064 32.9532 34.8055 33.1164 34.873C33.2795 34.9406 33.4543 34.9754 33.6309 34.9754C33.8074 34.9754 33.9823 34.9406 34.1454 34.873C34.3085 34.8055 34.4567 34.7064 34.5816 34.5816C34.7064 34.4567 34.8055 34.3085 34.873 34.1454C34.9406 33.9823 34.9754 33.8074 34.9754 33.6309C34.9754 33.4543 34.9406 33.2795 34.873 33.1164C34.8055 32.9532 34.7064 32.805 34.5816 32.6802ZM2.72463 14.8184C2.72463 12.4265 3.43391 10.0883 4.76279 8.09945C6.09167 6.11064 7.98045 4.56056 10.1903 3.64521C12.4001 2.72986 14.8318 2.49036 17.1777 2.957C19.5237 3.42364 21.6786 4.57546 23.3699 6.2668C25.0613 7.95814 26.2131 10.113 26.6798 12.459C27.1464 14.805 26.9069 17.2366 25.9915 19.4465C25.0762 21.6563 23.5261 23.5451 21.5373 24.874C19.5485 26.2028 17.2103 26.9121 14.8184 26.9121C11.612 26.9086 8.53798 25.6333 6.27073 23.366C4.00348 21.0988 2.72818 18.0247 2.72463 14.8184Z" fill="white"/>
</svg>
