<svg width="34" height="34" viewBox="0 0 34 34" fill="none" xmlns="http://www.w3.org/2000/svg">
<path d="M1.125 0C0.826631 0 0.540483 0.118526 0.329505 0.329505C0.118526 0.540483 0 0.826631 0 1.125C0 1.42337 0.118526 1.70952 0.329505 1.9205C0.540483 2.13147 0.826631 2.25 1.125 2.25H3.6225L4.52475 5.86575L7.89525 23.832C7.94351 24.0898 8.08033 24.3226 8.28205 24.4903C8.48377 24.6579 8.73772 24.7498 9 24.75H11.25C10.0565 24.75 8.91193 25.2241 8.06802 26.068C7.22411 26.9119 6.75 28.0565 6.75 29.25C6.75 30.4435 7.22411 31.5881 8.06802 32.432C8.91193 33.2759 10.0565 33.75 11.25 33.75C12.4435 33.75 13.5881 33.2759 14.432 32.432C15.2759 31.5881 15.75 30.4435 15.75 29.25C15.75 28.0565 15.2759 26.9119 14.432 26.068C13.5881 25.2241 12.4435 24.75 11.25 24.75H27C25.8065 24.75 24.6619 25.2241 23.818 26.068C22.9741 26.9119 22.5 28.0565 22.5 29.25C22.5 30.4435 22.9741 31.5881 23.818 32.432C24.6619 33.2759 25.8065 33.75 27 33.75C28.1935 33.75 29.3381 33.2759 30.182 32.432C31.0259 31.5881 31.5 30.4435 31.5 29.25C31.5 28.0565 31.0259 26.9119 30.182 26.068C29.3381 25.2241 28.1935 24.75 27 24.75H29.25C29.5123 24.7498 29.7662 24.6579 29.968 24.4903C30.1697 24.3226 30.3065 24.0898 30.3548 23.832L33.7298 5.832C33.7601 5.66963 33.7544 5.50257 33.713 5.34266C33.6715 5.18276 33.5953 5.03395 33.4899 4.90681C33.3844 4.77966 33.2523 4.6773 33.1028 4.60699C32.9533 4.53668 32.7902 4.50015 32.625 4.5H6.5025L5.59125 0.85275C5.53052 0.609264 5.39013 0.393072 5.1924 0.238556C4.99466 0.084039 4.75095 6.93258e-05 4.5 0H1.125ZM9.93375 22.5L6.9795 6.75H31.2705L28.3163 22.5H9.93375ZM13.5 29.25C13.5 29.8467 13.2629 30.419 12.841 30.841C12.419 31.2629 11.8467 31.5 11.25 31.5C10.6533 31.5 10.081 31.2629 9.65901 30.841C9.23705 30.419 9 29.8467 9 29.25C9 28.6533 9.23705 28.081 9.65901 27.659C10.081 27.2371 10.6533 27 11.25 27C11.8467 27 12.419 27.2371 12.841 27.659C13.2629 28.081 13.5 28.6533 13.5 29.25ZM29.25 29.25C29.25 29.8467 29.0129 30.419 28.591 30.841C28.169 31.2629 27.5967 31.5 27 31.5C26.4033 31.5 25.831 31.2629 25.409 30.841C24.9871 30.419 24.75 29.8467 24.75 29.25C24.75 28.6533 24.9871 28.081 25.409 27.659C25.831 27.2371 26.4033 27 27 27C27.5967 27 28.169 27.2371 28.591 27.659C29.0129 28.081 29.25 28.6533 29.25 29.25Z" fill="white"/>
</svg>
